<svg xmlns="http://www.w3.org/2000/svg" viewBox="0 0 614.36 504.39"><defs><style>.cls-1{fill:#fff;}.cls-2,.cls-3{fill:#007c8f;}.cls-2{opacity:0.8;}</style></defs><g id="圖層_2" data-name="圖層 2"><g id="圖層_1-2" data-name="圖層 1"><rect class="cls-1" x="496.23" y="195.95" width="118.13" height="7.15"/><rect class="cls-1" x="316.13" y="289.89" width="163.58" height="7.15"/><rect class="cls-1" x="342.52" y="497.24" width="108" height="7.15"/><polygon class="cls-1" points="345.8 490.41 304.78 500.57 304.78 212.06 345.8 212.06 345.8 490.41"/><rect class="cls-2" x="496.23" y="195.95" width="41.03" height="308.44"/><polygon class="cls-1" points="614.36 490.8 573.34 481.02 573.34 195.95 614.36 195.95 614.36 490.8"/><path class="cls-1" d="M304.78,209.84v7.89c11.93-1.79,103.82-6.76,174.94-36.2V171.1C412.85,199.89,320.87,206.83,304.78,209.84Z"/><path class="cls-1" d="M304.78,494.66V502c18.74-2.36,76.19-18,128.39-47.41v-9.9C384.09,473.51,347.26,483.77,304.78,494.66Z"/><path class="cls-1" d="M573.33,478.05a360.25,360.25,0,0,1-46.43-15.94v7.19a376.52,376.52,0,0,0,46.43,15.44c13.91,3.71,27.78,6.74,41,9.23v-6.33C601,485,587.13,481.85,573.33,478.05Z"/><path class="cls-1" d="M425.42,329l0-134-35.06,4.48V327.3c-.62,10.9-4.77,125.16,89.32,162V450.42C420.59,416.4,425.17,332.83,425.42,329Z"/><rect class="cls-1" width="321.56" height="35.41"/><rect class="cls-3" x="208.14" y="-98.6" width="20.53" height="247.49" transform="translate(243.55 -193.25) rotate(90)"/></g></g></svg>