<svg xmlns="http://www.w3.org/2000/svg" viewBox="0 0 237.77 209.81"><defs><style>.cls-1,.cls-3{fill:none;}.cls-1,.cls-2,.cls-3{stroke:#002b40;stroke-miterlimit:10;}.cls-2{fill:#00465a;}.cls-3{stroke-width:0.5px;}.cls-4{fill:#072741;}.cls-5{fill:#fff;}</style></defs><g id="圖層_2" data-name="圖層 2"><g id="圖層_1-2" data-name="圖層 1"><polygon class="cls-1" points="147.92 60.02 147.92 69.9 97.4 69.9 97.4 68.57 88.39 68.57 88.39 50.69 97.72 50.69 97.72 28.1 92.86 28.1 92.86 3.48 118.62 3.48 118.62 1.35 135.62 1.35 135.62 11.33 149.59 11.33 149.59 16.28 162.48 16.28 162.48 60.02 147.92 60.02"/><polygon class="cls-1" points="169.97 68.41 169.97 72.01 226.89 72.01 226.89 68.53 236.25 68.53 236.25 50.56 227.15 50.56 227.15 44.98 227.15 45.04 231.3 45.04 231.3 3.48 204.26 3.48 204.26 1.35 189.59 1.35 189.59 11.54 175.62 11.54 175.62 16.28 162.48 16.28 162.48 60.02 162.48 68.41 169.97 68.41"/><polygon class="cls-1" points="165.58 143.84 183.65 143.84 183.65 136.24 189.49 136.24 189.49 141.25 234.15 141.25 234.15 98.96 223.17 98.96 223.17 84.88 218.81 84.88 218.81 72.01 169.97 72.01 169.97 75.01 162.5 75.01 162.49 136.24 165.59 136.24 165.58 143.84"/><polygon class="cls-1" points="69.21 126.16 69.21 140.95 17.95 140.95 17.95 137.42 9.9 137.42 9.9 119.49 17.95 119.49 17.95 97.1 13.01 97.1 13.01 71.86 40.53 71.86 40.53 69.1 55.3 69.1 55.3 71.36 81.58 71.36 81.58 126.16 69.21 126.16"/><polygon class="cls-1" points="82.18 202.29 78.62 202.29 78.62 209.25 57.37 209.25 57.37 202.29 36.86 202.29 36.86 208.2 12.9 208.2 12.9 201.41 0.58 201.41 0.58 180.61 12.9 180.61 12.9 153.89 20.87 153.89 20.87 140.95 78.75 140.95 78.75 148.3 82.18 148.3 82.18 202.29"/><polygon class="cls-2" points="82.18 202.29 85.74 202.29 85.74 209.25 106.99 209.25 106.99 202.29 127.49 202.29 127.49 208.2 151.45 208.2 151.45 201.41 163.78 201.41 163.78 180.61 151.45 180.61 151.45 153.89 143.48 153.89 143.48 140.95 85.6 140.95 85.6 148.3 82.18 148.3 82.18 202.29"/><polyline class="cls-3" points="143.48 140.95 153.47 140.95 153.47 145.46 169.83 145.46 169.83 143.84"/><rect class="cls-4" x="81.01" y="67.87" width="16.98" height="7.36"/><polygon class="cls-4" points="13.01 77.87 6.74 77.87 6.74 63.1 10.16 63.1 15.35 69.1 15.35 71.7 13.01 71.7 13.01 77.87"/><polygon class="cls-4" points="98.99 0.08 93.49 0.08 92.3 0.08 87.04 0.08 87.04 10.56 93.49 10.56 93.49 3.48 98.99 3.48 98.99 0.08"/><rect class="cls-4" x="162.29" y="68.47" width="7.61" height="6.54"/><polygon class="cls-4" points="225.3 0 225.3 3.48 231.3 3.48 231.3 10.68 237.77 10.68 237.77 3.48 237.77 1.51 237.77 0 225.3 0"/><rect class="cls-4" x="226.49" y="68.47" width="10.37" height="6.79"/><rect class="cls-4" x="221.26" y="141.25" width="13.44" height="6.75"/><polygon class="cls-4" points="165.64 143.93 165.64 140.95 165.7 140.95 165.7 136.27 162.26 136.27 162.26 138.16 153.36 138.16 153.36 145.36 164.25 145.36 164.25 145.46 169.83 145.46 169.83 143.93 165.64 143.93"/><rect class="cls-4" y="201.25" width="12.9" height="7.56"/><polygon class="cls-4" points="20.87 140.81 17.87 140.81 17.87 137.42 15.44 137.42 15.44 137.52 9.74 137.52 9.74 133.12 6.95 133.12 6.95 137.52 6.95 139.49 6.95 145.03 16.04 145.03 16.04 144.12 20.87 144.12 20.87 140.81"/><rect class="cls-4" x="78.83" y="140.38" width="6.77" height="7.92"/><rect class="cls-4" x="78.83" y="202.1" width="6.77" height="7.71"/><rect class="cls-4" x="151.23" y="201.41" width="13.13" height="7.4"/><path class="cls-4" d="M47.71,179.9v-.57c1.47-.16,1.65-.37,1.33-1.15s-.74-1.83-1.21-3.12H43c-.36.93-.7,1.73-1,2.57-.5,1.33-.18,1.49,1.67,1.7v.57H38.4v-.57c1.42-.16,1.78-.31,2.57-2.15l4.67-10.77.72-.12c1.42,3.5,3,7.38,4.4,10.93.72,1.78.93,1.95,2.53,2.11v.57ZM45.46,169c-.72,1.77-1.49,3.63-2.17,5.25h4.22Z"/><path class="cls-5" d="M121.79,172.68c2.17.33,3.92,1.28,3.92,3.26a3.51,3.51,0,0,1-2.18,3.16,8,8,0,0,1-3.9.8h-5.56v-.57c1.92-.16,2-.35,2-2v-8.22c0-1.71-.21-1.85-2-2v-.58H120a6.48,6.48,0,0,1,3.47.72,2.62,2.62,0,0,1,1.33,2.3C124.79,171.51,123.05,172.4,121.79,172.68Zm-2.59-.24c2.48,0,3.49-.9,3.49-2.59,0-1.43-1-2.54-3.13-2.54a2.49,2.49,0,0,0-1.27.21c-.18.12-.25.34-.25,1v3.92ZM118,177.32c0,1.48.39,1.85,2,1.85,1.76,0,3.48-.87,3.48-3s-1.63-3-4.38-3H118Z"/><path class="cls-4" d="M203.23,110.11a24.91,24.91,0,0,1-1.24,3.1,23,23,0,0,1-4.13.49c-5.39,0-8.14-3.26-8.14-6.85,0-4.18,3.49-7.07,8.55-7.07a25.56,25.56,0,0,1,4.26.47c.09.92.25,2.15.43,3.18l-.7.14a3.58,3.58,0,0,0-2.15-2.64,6.57,6.57,0,0,0-2.36-.4c-3.72,0-5.69,2.51-5.69,5.89,0,4,2.26,6.5,5.91,6.5,2.3,0,3.43-1,4.58-3Z"/><path class="cls-4" d="M195.3,32.64c3.18,0,5.19.58,6.59,1.78a5.72,5.72,0,0,1,1.92,4.39A6.55,6.55,0,0,1,201,44.35,11.56,11.56,0,0,1,194.31,46H189V45.4c1.94-.17,2-.31,2-2V35.22c0-1.76-.27-1.84-2-2v-.58ZM193,43.24c0,1.54.72,2,2.41,2,4.07,0,6.14-2.52,6.14-6.11A5.18,5.18,0,0,0,199,34.18a7.62,7.62,0,0,0-3.85-.82,3.36,3.36,0,0,0-1.78.29c-.21.12-.3.35-.3,1.14Z"/><path class="cls-4" d="M130.44,42.71c-.13.53-.74,2.65-1,3.26h-11V45.4c2.1-.14,2.25-.33,2.25-2v-8.1c0-1.83-.24-1.93-1.93-2.07v-.58h6.9c2.12,0,3,0,3.27,0,0,.51.11,2,.2,3.14l-.68.1a6.27,6.27,0,0,0-.67-1.56c-.36-.68-.88-.82-2.24-.82h-2.14c-.7,0-.74.06-.74.66v4.53h2.5c1.69,0,1.81-.31,2.08-1.7h.7v4.22h-.7c-.3-1.47-.48-1.68-2.1-1.68h-2.48v4.08c0,1.44.49,1.56,1.62,1.58h2.1c1.38,0,1.6-.18,2.1-.72a8.83,8.83,0,0,0,1.22-1.88Z"/><path class="cls-4" d="M49.27,103.26a6,6,0,0,0-.7-1.52c-.43-.69-.77-.86-2-.86H44.13c-.66,0-.73.06-.73.66v4.74h2.8c1.63,0,1.74-.25,2.08-1.68H49v4.28h-.7c-.29-1.43-.45-1.76-2-1.76H43.4v3.67c0,1.78.23,1.87,2.28,2v.58H39.41v-.58c1.83-.12,2-.27,2-2v-8.12c0-1.79-.22-1.87-2-2v-.58h7.15c2,0,2.8,0,3.19,0,0,.74.11,2.18.22,3.16Z"/></g></g></svg>