<svg xmlns="http://www.w3.org/2000/svg" viewBox="0 0 232 198.46"><defs><style>.cls-1{fill:#bebfbf;}</style></defs><g id="圖層_2" data-name="圖層 2"><g id="圖層_1-2" data-name="圖層 1"><path class="cls-1" d="M60.36.61A36.21,36.21,0,0,1,55.7,6.1v1c1.46-.56,6.23-4.94,6.23-4.94Z"/><path class="cls-1" d="M55.34,7.66V5.92l.12-.11A36.35,36.35,0,0,0,60.06.4l.23-.4,2.18,2.19-.31.28c-.2.18-4.83,4.43-6.34,5Zm.72-1.39v.22a50,50,0,0,0,5.32-4.33l-1-1A40.1,40.1,0,0,1,56.06,6.27Z"/><path class="cls-1" d="M67.25,44h1.83V10.25a.45.45,0,0,0-.15-.33l-1.6-1.44a.4.4,0,0,0-.56,0L65.34,10H59v1h8.25v30.5H59v1h8.25Z"/><path class="cls-1" d="M69.44,44.36H66.89V42.93H58.64V41.15h8.25V11.43H58.64V9.63h6.55l1.33-1.41a.73.73,0,0,1,1,0l1.6,1.44a.83.83,0,0,1,.28.63Zm-1.83-.79h1.11V10.25L67.1,8.78l-1.61,1.64H59.36v.23h8.25V41.94H59.36v.21h8.25Z"/><path class="cls-1" d="M30.47,22.83h4.69v-.6a.48.48,0,0,0-.18-.39l-2-1.71a.51.51,0,0,0-.69,0L30.51,22H18.09V16.89H31.92v-.61a.53.53,0,0,0-.18-.39l-2-1.7a.5.5,0,0,0-.69,0L27.27,16H18.09V11H35.16v-.6A.52.52,0,0,0,35,10l-2-1.7a.51.51,0,0,0-.69,0L30.51,10.1H19.29a29,29,0,0,0,9.93-7L27,2.36a.14.14,0,0,0-.18.1C26,5,18.24,9.89,18.24,9.89l0,.21H15l.49-.77S10.07,4.6,6.82,2.82L5.67,4.05l8.89,6.05H1.26V11H16.49V16H2.35v.86H16.49V22H1.26v.86Z"/><path class="cls-1" d="M35.53,23.23H.9V21.58H16.13V17.29H2V15.64H16.13V11.35H.9V9.71H13.3L5.09,4.12,6.76,2.34,7,2.47A68.39,68.39,0,0,1,15.72,9l.26.23-.28.45h2.16v0l.21-.13c2.13-1.33,7.81-5.24,8.43-7.22A.49.49,0,0,1,27.11,2l2.77.92-.39.46A28.83,28.83,0,0,1,21,9.71h9.33L32.05,8a.85.85,0,0,1,1.16,0l2,1.7a1,1,0,0,1,.32.71v1H18.45v4.29h8.67l1.69-1.7a.82.82,0,0,1,1.15,0l2,1.7a.93.93,0,0,1,.32.7v1H18.45v4.29H30.37l1.68-1.71a.85.85,0,0,1,1.16-.05l2,1.71a.93.93,0,0,1,.32.7Zm-4.7-.79h4v-.21l-2-1.79a.17.17,0,0,0-.22,0l-1.89,1.91H17.73V16.5H31.56v-.21l-2-1.79a.17.17,0,0,0-.22,0l-1.89,1.92H17.73V10.57H34.8v-.21l-2-1.79a.17.17,0,0,0-.22,0l-1.89,1.91h-29v.08H16.85v5.86H2.71v.07H16.85v5.86H1.62v.08ZM6.25,4l8.52,5.8L15,9.41A70.22,70.22,0,0,0,6.89,3.3ZM27.09,2.8C26.16,5,21.28,8.36,19.27,9.68a29.67,29.67,0,0,0,9.27-6.4Z"/><path class="cls-1" d="M17.21,31.12c1.19,2.26,6.45,10.71,20.95,16.74l.09-1.21S20.39,36,19.17,29.7H36v-.63a.52.52,0,0,0-.18-.41l-2-1.77a.5.5,0,0,0-.7,0l-1.83,1.88H18.14a12.43,12.43,0,0,0,.63-3.52h-2.1a21,21,0,0,1-1,3.52H1.26v.89H15.38C11.26,39.73.55,46.52.55,46.52l.6.78C4.82,45.39,13.62,38.57,17.21,31.12Zm.62-1.42h.68l-.87.47C17.7,30,17.77,29.86,17.83,29.7Z"/><path class="cls-1" d="M38.48,48.41,38,48.22C24.53,42.61,19,34.92,17.22,31.91,13.46,39.14,5.08,45.69,1.31,47.65l-.25.13L0,46.42l.37-.24c.1-.06,10.26-6.59,14.44-16.08H.9V28.42H15.47a21.1,21.1,0,0,0,.85-3.2l.06-.32h2.77v.4a13.06,13.06,0,0,1-.5,3.12H31.1l1.73-1.78A.86.86,0,0,1,34,26.59l2,1.77a.93.93,0,0,1,.32.72v1H19.64c1.94,6.13,18.61,16.1,18.78,16.2l.21.13ZM17.41,30.72l.11.21c1.25,2.35,6.38,10.44,20.32,16.37l0-.43C35.79,45.62,20.3,36.1,18.85,30ZM1.1,46.62l.15.19c3.91-2.13,12.19-8.72,15.64-15.87l.47-1.05c0-.11.09-.22.13-.34l.1-.24H35.65v-.23a.12.12,0,0,0,0-.1l-2-1.77a.16.16,0,0,0-.23,0l-1.94,2H17.64l.16-.52a13,13,0,0,0,.6-3H17A23,23,0,0,1,16.06,29L16,29.2H1.62v.11H15.93l-.22.55C12,38.84,3,45.31,1.1,46.62Z"/><polygon class="cls-1" points="65.35 25.26 57.13 25.26 57.13 9.38 55.3 9.38 55.3 43.97 57.13 43.97 57.13 26.72 65.35 26.72 65.35 25.26"/><path class="cls-1" d="M57.49,44.36H54.93V9h2.56V24.87h8.22v2.25H57.49Zm-1.83-.79h1.1V26.33H65v-.68H56.76V9.77h-1.1Z"/><path class="cls-1" d="M71.11,17.85c1.75-1.51,2.63-5,3.07-8.41H89V33.87s0,.31,0,.81c-.19,2.25-1.25,8.47-7.17,9.31v1.32s9.05-.93,9.05-11.43V6.54H89V8.43H74.3A60.94,60.94,0,0,0,74.58.61H72.75c.55,13.15-2.92,17.24-2.92,17.24Z"/><path class="cls-1" d="M81.38,45.74v-2.1l.31,0c5.58-.79,6.66-6.52,6.86-9,0-.48,0-.77,0-.78v-24H74.5c-.58,4.21-1.64,7-3.17,8.33l-.1.08H69l.55-.66S72.93,13.4,72.39.63V.22h2.55V.59A61.53,61.53,0,0,1,74.7,8H88.59V6.15h2.56V33.88c0,10.74-9.28,11.81-9.38,11.82Zm.72-1.42v.54c1.72-.31,8.33-2.08,8.33-11V6.93H89.31V8.82H73.9l0-.44A63.28,63.28,0,0,0,74.23,1h-1.1c.37,10.17-1.66,14.86-2.59,16.46H71c1.34-1.25,2.33-4,2.85-8.07l0-.34H89.31V33.87h0s0,.32,0,.85C89.1,36.73,88.09,43.27,82.1,44.32Z"/><path class="cls-1" d="M84.63,30.38s-5.15-4.92-8.24-6.77L75.3,24.89,84,31.4Z"/><path class="cls-1" d="M84.14,32l-9.39-7,1.57-1.83.25.15c3.08,1.85,8.08,6.62,8.29,6.82l.24.22Zm-8.29-7.13,8.08,6,.22-.38a66,66,0,0,0-7.69-6.36Z"/><rect class="cls-1" x="111.31" y="4.17" width="1.39" height="40.63"/><path class="cls-1" d="M113.06,45.19H111V3.78h2.11Zm-1.39-.78h.67V4.56h-.67Z"/><path class="cls-1" d="M147.63,44.82V4.17h-1.54v18.1c0,6.56,0,13.07.37,18.84h-.05c-.74-1.7-2.86-5.51-19.93-36.94H123.7l21.77,40.65Z"/><path class="cls-1" d="M148,45.22h-2.73L123.08,3.78h3.6l8.42,15.48c7.19,13.23,9.81,18,10.92,20.2-.25-5.49-.29-11.48-.29-17.19V3.78H148Zm-2.32-.79h1.59V4.56h-.81V22.27c0,6.28.05,12.9.37,18.82l0,.42h-.62l-.15-.23c-.59-1.36-2.06-4.06-11.6-21.62l-8.21-15.1h-1.94Z"/><rect class="cls-1" x="123.54" y="10.68" width="1.63" height="34.15"/><path class="cls-1" d="M125.53,45.22h-2.36V10.28h2.36Zm-1.63-.79h.91V11.07h-.91Z"/><rect class="cls-1" x="1.58" y="66.24" width="2.34" height="53.26"/><path class="cls-1" d="M4.28,119.88H1.21v-54H4.28Zm-2.34-.78H3.55V66.63H1.94Z"/><rect class="cls-1" x="20.03" y="104.75" width="12.98" height="1.29"/><path class="cls-1" d="M33.37,106.44H19.66v-2.08H33.37Zm-13-.79H32.64v-.5H20.39Z"/><path class="cls-1" d="M39.15,79.21a.8.8,0,0,0-.25-.59l-2.75-2.56a.65.65,0,0,0-.95,0l-2.46,2.71h-21v1.29H39.15Z"/><path class="cls-1" d="M39.51,80.51H11.35V78.43H32.59l2.35-2.6a1,1,0,0,1,1.45-.06l2.74,2.55a1.23,1.23,0,0,1,.38.89Zm-27.44-.79H38.79v-.52a.39.39,0,0,0-.13-.29l-2.75-2.56a.32.32,0,0,0-.45,0l-2.57,2.84H12.07Z"/><rect class="cls-1" x="15.3" y="86.48" width="2.34" height="21.35"/><path class="cls-1" d="M18,108.21H14.94V86.08H18Zm-2.34-.78h1.62V86.87H15.66Z"/><path class="cls-1" d="M33.1,85.33a.5.5,0,0,0-.7,0L30.56,87.3H20v1.29H33v19.23h2.34V87.59a.57.57,0,0,0-.18-.43Z"/><path class="cls-1" d="M35.7,108.21H32.64V89h-13V86.91H30.42l1.72-1.83a.84.84,0,0,1,1.19,0l2.06,1.83a1,1,0,0,1,.31.73Zm-2.33-.78H35V87.59a.17.17,0,0,0,0-.12l-2.06-1.84a.16.16,0,0,0-.22,0l-1.94,2H20.39v.51h13Z"/><path class="cls-1" d="M198.21,70.37h6.46v-.91a.85.85,0,0,0-.24-.59l-2.75-2.55a.66.66,0,0,0-1,0l-2.47,2.72H184.34v1.29Z"/><path class="cls-1" d="M205,70.76H184V68.68h14.13l2.36-2.6a1,1,0,0,1,1.44-.06l2.75,2.55a1.24,1.24,0,0,1,.38.9ZM198.57,70h5.74v-.51a.39.39,0,0,0-.12-.3l-2.75-2.56a.31.31,0,0,0-.45,0l-2.57,2.83H184.71V70Z"/><rect class="cls-1" x="186.42" y="84.49" width="16.18" height="1.29"/><path class="cls-1" d="M203,86.17h-16.9V84.09H203Zm-16.18-.79h15.46v-.5H186.78Z"/><rect class="cls-1" x="186.42" y="91.4" width="16.18" height="1.29"/><path class="cls-1" d="M203,93.08h-16.9V91H203Zm-16.18-.79h15.46v-.5H186.78Z"/><path class="cls-1" d="M204.15,74.16a.66.66,0,0,0-1,0l-2.46,2.72H181.87v1.29h25.28V77.3a.82.82,0,0,0-.25-.59Z"/><path class="cls-1" d="M207.51,78.6h-26V76.52h19.08l2.36-2.6a1,1,0,0,1,1.44-.06l2.75,2.55a1.22,1.22,0,0,1,.37.89ZM201,77.82h5.75V77.3a.43.43,0,0,0-.12-.29l-2.75-2.56a.32.32,0,0,0-.46,0l-2.57,2.83H182.23v.5Z"/><path class="cls-1" d="M156.74,72.25H168.6V73s0,.39,0,1c-.24,2.84-1.58,10.7-9.11,11.74v1.68s11.5-1.17,11.5-14.43V69.1H168.6V71H156.74v-5.3H154.4V71h-7.35v1.29h7.35V73s0,.39-.05,1c-.24,2.84-1.58,10.7-9.11,11.74v1.68s11.5-1.17,11.5-14.43Z"/><path class="cls-1" d="M159.08,87.85V85.4l.32,0c7.15-1,8.53-8.31,8.79-11.4.05-.61.05-1,.05-1v-.33H157.1V73c0,13.46-11.71,14.81-11.82,14.82l-.4,0V85.4l.32,0c7.16-1,8.53-8.31,8.79-11.4,0-.61,0-1,0-1v-.33h-7.35V70.57H154V65.26h3.06v5.31h11.14V68.71h3.06V73c0,13.46-11.71,14.81-11.82,14.82Zm.72-1.76V87c2-.34,10.78-2.47,10.78-14v-3.5H169v1.86H156.38v-5.3h-1.62v5.3h-7.34v.51h7.34V73h0a10.18,10.18,0,0,1,0,1.06c-.21,2.53-1.49,10.78-9.11,12.06V87c2-.34,10.78-2.47,10.78-14V71.86H169V73s0,.4-.05,1.06C168.7,76.56,167.42,84.81,159.8,86.09Z"/><path class="cls-1" d="M152.91,94.24h-2.34V96H144c.3-3.1.3-5.24.3-5.24h-2.13A51.83,51.83,0,0,1,142,96h-7v1.29h6.87c-1.52,13.66-8.14,20-8.14,20l.57,1c6.49-3.66,8.77-14.06,9.57-21h6.67v7.84s0,.39,0,1c-.24,2.84-1.58,10.69-9.11,11.74v1.68s11.5-1.17,11.5-14.43V97.33h0V96h0Z"/><path class="cls-1" d="M141.05,120.05V117.6l.31,0c7.16-1,8.54-8.3,8.8-11.39.05-.61.05-1,.05-1V97.72h-6c-.92,7.65-3.36,17.34-9.72,20.93l-.3.17-.91-1.59.23-.22c.07-.07,6.4-6.26,8-19.29h-6.82V95.65h7c.12-1.6.17-3.22.15-4.84v-.4h2.86v.39s0,2-.26,4.85h5.77v-1.8h3.06v11.34c0,13.46-11.71,14.81-11.83,14.82Zm.72-1.77v.89c2-.34,10.78-2.47,10.78-14V94.63h-1.62v1.8h-7.29l0-.43c.22-2.29.28-4.06.29-4.81h-1.4c0,1.64,0,3.28-.18,4.89l0,.35h-7v.51h6.92l-.05.44c-1.36,12.22-6.86,18.72-8,20l.24.41c6.27-3.82,8.38-14.45,9.08-20.5l0-.34h7.35v8.23h0s0,.4-.05,1.06C150.66,108.76,149.38,117,141.77,118.28Z"/><path class="cls-1" d="M170.23,96h-6.34c.3-3.1.3-5.24.3-5.24h-2.13a51.83,51.83,0,0,1-.18,5.24h-6v1.29h5.89c-1.52,13.66-8.14,20-8.14,20l.57,1c6.49-3.66,8.77-14.06,9.57-21h6.48v7.84s0,.39-.06,1c-.24,2.84-1.58,10.69-9.1,11.74v1.68s11.49-1.17,11.49-14.43v-11h-2.33Z"/><path class="cls-1" d="M160.7,120.05V117.6l.32,0c7.16-1,8.53-8.3,8.79-11.39.05-.61.05-1,.05-1V97.72h-5.79c-.92,7.65-3.36,17.34-9.72,20.93l-.3.17-.91-1.59.23-.22c.07-.07,6.4-6.26,8-19.29H155.5V95.65h6.05c.12-1.6.17-3.23.15-4.84v-.4h2.86v.39s0,2-.26,4.85h5.57v-1.8h3.07v11.34c0,13.46-11.71,14.81-11.83,14.82Zm.73-1.77v.89c2-.34,10.77-2.47,10.77-14V94.63h-1.61v1.8h-7.1l0-.43c.22-2.29.28-4.06.29-4.81h-1.4c0,1.64,0,3.28-.18,4.89l0,.35h-6v.51h5.93l0,.44c-1.36,12.22-6.86,18.72-8,20l.24.41c6.27-3.83,8.38-14.45,9.08-20.5l0-.34h7.16v8.23h0s0,.4-.06,1.06C170.32,108.76,169,117,161.43,118.28Z"/><path class="cls-1" d="M137.09,80.1h6.47v-.91a.82.82,0,0,0-.25-.59L140.56,76a.66.66,0,0,0-.95,0l-2.46,2.72h-3.9V65.66h-2.34v53.82h2.34V80.09h3.84Z"/><path class="cls-1" d="M133.61,119.88h-3.06V65.26h3.06V78.41H137l2.35-2.6a1,1,0,0,1,1.44-.06l2.75,2.55a1.23,1.23,0,0,1,.38.89v1.3H133.61Zm-2.34-.79h1.62V79.7H143.2v-.52a.39.39,0,0,0-.13-.29l-2.75-2.56a.31.31,0,0,0-.45,0L137.3,79.2h-4.41V66.05h-1.62Z"/><rect class="cls-1" x="122.54" y="78.81" width="6.81" height="1.29"/><path class="cls-1" d="M129.71,80.49h-7.53V78.41h7.53Zm-6.8-.79H129v-.5h-6.08Z"/><rect class="cls-1" x="70.02" y="80.5" width="6.01" height="1.29"/><path class="cls-1" d="M76.39,82.18H69.66V80.11h6.73Zm-6-.78h5.29v-.51H70.38Z"/><rect class="cls-1" x="70.02" y="91.46" width="6.01" height="1.29"/><path class="cls-1" d="M76.39,93.14H69.66V91.07h6.73Zm-6-.78h5.29v-.51H70.38Z"/><rect class="cls-1" x="98.22" y="80.5" width="6.01" height="1.29"/><path class="cls-1" d="M104.59,82.18H97.86V80.11h6.73Zm-6-.78h5.29v-.51H98.58Z"/><rect class="cls-1" x="98.22" y="91.46" width="6.01" height="1.29"/><path class="cls-1" d="M104.59,93.14H97.86V91.07h6.73Zm-6-.78h5.29v-.51H98.58Z"/><path class="cls-1" d="M108.92,70.07h0V68.78h0V67.49h-2.34v1.29h-5.86v1.29h5.86v32.34h-9.7V65.66H94.54v1.83H82v1.29H94.54v33.63H79.63V65.66H77.3v36.75H67.64v-29c1.86-.71,8-6.27,8-6.27l-2-2a46.77,46.77,0,0,1-6,7V69.89H65.3v32.52H60.64v1.29h52.51v-1.29h-4.23Z"/><path class="cls-1" d="M113.51,104.1H60.28V102h4.65V69.5H68v1.7a42.65,42.65,0,0,0,5.3-6.28l.23-.4,2.61,2.61-.31.29c-.24.22-5.71,5.2-7.83,6.23V102h8.93V65.27H80V102H94.18V69.17H81.63V67.1H94.18V65.27h3.06V102h9V70.46h-5.86V68.39h5.86V67.1h3.06V102h4.23ZM61,103.31h51.79v-.5h-4.23V67.88h-1.62v1.29h-5.86v.51h5.86v33.13H96.52V66.06H94.9v1.82H82.35v.51H94.9v34.42H79.27V66.06H77.66v36.75H67.27V73.11l.25-.09c1.54-.59,6.26-4.78,7.53-5.92l-1.38-1.38a50.69,50.69,0,0,1-5.79,6.67l-.61.6V70.28H65.66v32.53H61Z"/><path class="cls-1" d="M77,106.78c-1.3,4.5-13.9,13.1-13.9,13.1l.1,1.08A47.59,47.59,0,0,0,80.88,107.9l-3.58-1.29A.22.22,0,0,0,77,106.78Z"/><path class="cls-1" d="M62.9,121.52l-.17-1.85.19-.13c.12-.08,12.5-8.57,13.74-12.88h0a.66.66,0,0,1,.3-.39.55.55,0,0,1,.45,0l4.09,1.48-.35.44a48.41,48.41,0,0,1-17.81,13.18Zm.59-1.44,0,.32a48.1,48.1,0,0,0,16.72-12.32L77.31,107C75.89,111.38,65.12,119,63.49,120.08Z"/><path class="cls-1" d="M95,110.21l13.48,10,.92-1.56s-8-7.54-12.7-10.38Z"/><path class="cls-1" d="M108.58,120.74,94.44,110.27l2.17-2.51.25.14c4.74,2.83,12.68,10.36,12.76,10.43l.24.23Zm-13-10.6,12.82,9.5.54-.93c-1.32-1.24-7.92-7.36-12.15-10Z"/><path class="cls-1" d="M45.07,68.06H8.64v1.29H45.07v35.37s0,.38,0,1c-.24,2.86-1.59,10.76-9.17,11.82v1.69s11.57-1.18,11.57-14.53V65.66H45.07Z"/><path class="cls-1" d="M35.49,119.69v-2.47l.32,0c7.2-1,8.59-8.36,8.85-11.47.05-.61.05-1,.05-1v-35H8.28V67.67H44.71v-2.4h3.08v39.46c0,13.55-11.79,14.9-11.9,14.92Zm.72-1.78v.9c2-.34,10.85-2.48,10.85-14.08V66.05H45.43v2.4H9V69H45.43v35.76h0s0,.4,0,1.06C45.16,108.32,43.87,116.63,36.21,117.91Z"/><path class="cls-1" d="M92,75.87a.82.82,0,0,0-.25-.59L89,72.72a.66.66,0,0,0-1,0l-2.46,2.71H82.31v1.29H92Z"/><path class="cls-1" d="M92.36,77.17H82V75.09h3.49l2.36-2.6a1,1,0,0,1,1.44-.06L92,75a1.26,1.26,0,0,1,.37.89Zm-9.68-.79h9v-.52a.43.43,0,0,0-.12-.29L88.77,73a.32.32,0,0,0-.46,0l-2.57,2.83H82.68Z"/><rect class="cls-1" x="82.31" y="81.42" width="2.34" height="17.42"/><path class="cls-1" d="M85,99.24H82V81H85Zm-2.33-.79h1.61V81.82H82.68Z"/><path class="cls-1" d="M91.86,98.75V82.53a.57.57,0,0,0-.19-.42l-2-1.83a.5.5,0,0,0-.71,0l-1.83,1.94H85.73v1.29h3.79V95.73H86.09V97h3.43v1.73Z"/><path class="cls-1" d="M92.22,99.14H89.16V97.41H85.73V95.34h3.43V83.93H85.37V81.86h1.56L88.66,80A.85.85,0,0,1,89.85,80l2.05,1.84a1,1,0,0,1,.32.72Zm-2.34-.78H91.5V82.53a.17.17,0,0,0-.06-.12l-2-1.83a.17.17,0,0,0-.23,0l-1.93,2H86.09v.51h3.79v13H86.45v.51h3.43Z"/><rect class="cls-1" x="185.7" y="98.14" width="2.34" height="21.34"/><path class="cls-1" d="M188.4,119.88h-3.06V97.74h3.06Zm-2.34-.79h1.62V98.53h-1.62Z"/><path class="cls-1" d="M201.08,97a.51.51,0,0,0-.71,0L198.54,99h-8.1v1.29H201V116.4H190.44v1.27H201v1.81h2.34V99.25a.62.62,0,0,0-.18-.43Z"/><path class="cls-1" d="M203.68,119.88h-3.06v-1.82H190.08v-2h10.54V100.65H190.07V98.57h8.32l1.73-1.83a.84.84,0,0,1,1.19,0h0l2.05,1.83a1,1,0,0,1,.32.73Zm-2.34-.79H203V99.25a.17.17,0,0,0-.05-.12l-2.06-1.83a.15.15,0,0,0-.22,0l-1.94,2H190.8v.51h10.54V116.8H190.8v.48h10.54Z"/><path class="cls-1" d="M227.23,86.32H214v1.32h13.28v1.82h2.39V68.72a.59.59,0,0,0-.19-.43l-2.1-1.88a.52.52,0,0,0-.73,0l-1.88,2H209.17v1.32h18.06Z"/><path class="cls-1" d="M230,89.85h-3.12V88H213.59V85.92h13.27V70.14H208.81V68h15.77l1.77-1.88a.85.85,0,0,1,1.21,0l2.1,1.88a1,1,0,0,1,.32.73Zm-2.39-.79h1.67V68.72a.18.18,0,0,0-.06-.13l-2.1-1.87a.18.18,0,0,0-.25,0l-2,2.09H209.53v.54h18.06V86.71H214.31v.53h13.28Z"/><path class="cls-1" d="M224,117.7c-3.22,0-4.78-.19-6.57-1.2a15.57,15.57,0,0,1-3.39-3.14c-2.09-2.5-2.32-6-2.46-7.69,0-.51-.05-.87-.06-1.06-.07-3.5-.12-9.45,0-19.72h-2.39v19.74c0,10.58,7.15,13.65,10.3,14.49a8.75,8.75,0,0,0,2.21.28l10,0v-1.71C228.42,117.78,226.57,117.76,224,117.7Z"/><path class="cls-1" d="M232,119.81H221.68a9.58,9.58,0,0,1-2.29-.3c-3.18-.85-10.58-4-10.58-14.87V84.5h3.12v.4c-.11,8.23-.11,14.86,0,19.7,0,.19,0,.54,0,1l0,.18c.14,1.74.41,5,2.34,7.29a15.45,15.45,0,0,0,3.3,3.05c1.63.93,3.06,1.17,6.39,1.16h0c2.54.06,4.41.08,7.59,0H232ZM209.53,85.28v19.35c0,10.33,7,13.31,10,14.1a7.86,7.86,0,0,0,2.12.28h9.6v-.91c-3,.06-4.8,0-7.25,0-3.09,0-4.79-.15-6.72-1.25a16.08,16.08,0,0,1-3.5-3.22c-2.1-2.51-2.39-6-2.53-7.75l0-.18c0-.51,0-.89-.06-1.08-.1-4.77-.1-11.27,0-19.34Z"/><rect class="cls-1" x="151.55" y="24.85" width="62.25" height="1.43" transform="translate(35.42 136.64) rotate(-44.99)"/><rect class="cls-1" x="-4.28" y="162.1" width="99.41" height="1.43" transform="translate(-101.82 79.81) rotate(-45)"/></g></g></svg>